<svg width="137" height="66" viewBox="0 0 137 66" fill="none" xmlns="http://www.w3.org/2000/svg">
<path d="M1.44141 37V12.3906H4.5V33.9766H14.6602V37H1.44141ZM16.6289 31.7969V23.1133C16.6289 22.0117 17.1211 20.9336 18.1055 19.8789C19.3242 18.6133 20.8477 17.9805 22.6758 17.9805V20.8281C21.293 20.8281 20.332 21.4023 19.793 22.5508C19.6289 22.9023 19.5469 23.2539 19.5469 23.6055V31.3398C19.5469 32.207 19.9453 32.9453 20.7422 33.5547C21.3047 33.9766 21.9492 34.1875 22.6758 34.1875V37.0352C20.4492 37.0352 18.7266 36.1328 17.5078 34.3281C16.9219 33.4375 16.6289 32.5938 16.6289 31.7969ZM24.1875 37.0352V34.1875C25.4297 34.1875 26.3203 33.625 26.8594 32.5C27.0469 32.125 27.1406 31.7617 27.1406 31.4102V23.6055C27.1406 22.6445 26.7305 21.8828 25.9102 21.3203C25.3945 20.9922 24.8086 20.8281 24.1523 20.8281V17.9805C26.3086 17.9805 27.9727 18.8594 29.1445 20.6172C29.7305 21.4844 30.0234 22.3164 30.0234 23.1133V31.7969C30.0234 32.9453 29.5312 34.0586 28.5469 35.1367C27.3984 36.3789 25.9453 37.0117 24.1875 37.0352ZM32.168 22.4102V19.5273H34.4883V17.4883C34.4883 16.1758 34.9219 14.9805 35.7891 13.9023C36.75 12.7773 37.9922 12.2031 39.5156 12.1797H40.8164L40.1484 15.0273H39.4805C38.1445 15.0977 37.4648 15.918 37.4414 17.4883V19.5625L39.832 19.5273V22.4102H37.4414V37H34.4883V22.4102H32.168ZM41.8008 21.0391V18.1914H44.1211V12.1094H47.1094V18.1914H49.3594V21.0742H47.1094V31.1641C47.1094 32.8281 47.7891 33.7539 49.1484 33.9414C49.4062 33.9883 49.6641 34.0117 49.9219 34.0117H50.4141L51.082 37H49.8164C46.9336 36.9766 45.1641 35.8984 44.5078 33.7656C44.2734 32.9688 44.1562 31.9844 44.1562 30.8125L44.1211 21.0391H41.8008ZM52.6641 37V12.3906H55.7227V23.1133H58.8867V26.1016H55.7227V37H52.6641ZM60.6445 26.1016V23.1133H63.7734V12.3906H66.8672V37H63.7734V26.1016H60.6445ZM69.6094 31.7969V23.1133C69.6094 22.0117 70.1016 20.9336 71.0859 19.8789C72.3047 18.6133 73.8281 17.9805 75.6562 17.9805V20.8281C74.2734 20.8281 73.3125 21.4023 72.7734 22.5508C72.6094 22.9023 72.5273 23.2539 72.5273 23.6055V31.3398C72.5273 32.207 72.9258 32.9453 73.7227 33.5547C74.2852 33.9766 74.9297 34.1875 75.6562 34.1875V37.0352C73.4297 37.0352 71.707 36.1328 70.4883 34.3281C69.9023 33.4375 69.6094 32.5938 69.6094 31.7969ZM77.168 37.0352V34.1875C78.4102 34.1875 79.3008 33.625 79.8398 32.5C80.0273 32.125 80.1211 31.7617 80.1211 31.4102V23.6055C80.1211 22.6445 79.7109 21.8828 78.8906 21.3203C78.375 20.9922 77.7891 20.8281 77.1328 20.8281V17.9805C79.2891 17.9805 80.9531 18.8594 82.125 20.6172C82.7109 21.4844 83.0039 22.3164 83.0039 23.1133V31.7969C83.0039 32.9453 82.5117 34.0586 81.5273 35.1367C80.3789 36.3789 78.9258 37.0117 77.168 37.0352ZM85.6758 31.9375V18.0156H88.6641V31.5859C88.6641 32.4297 89.0859 33.1328 89.9297 33.6953C90.4922 34.0469 91.1133 34.2227 91.793 34.2227V37.1758C89.543 37.1758 87.8086 36.2969 86.5898 34.5391C85.9805 33.6484 85.6758 32.7812 85.6758 31.9375ZM93.3398 37.1758V34.2227C94.6055 34.2227 95.5312 33.7188 96.1172 32.7109C96.3281 32.3359 96.4336 31.9609 96.4336 31.5859V18.0156H99.4219V31.9375C99.4219 33.0391 98.918 34.1289 97.9102 35.207C96.6914 36.4961 95.168 37.1523 93.3398 37.1758ZM101.461 32.0078L104.238 31.4805C104.238 32.5352 104.789 33.3672 105.891 33.9766C106.43 34.2344 106.945 34.375 107.438 34.3984V37.1758C105.164 37.1758 103.465 36.3555 102.34 34.7148C101.754 33.8477 101.461 32.9453 101.461 32.0078ZM101.637 23.3594C101.637 21.2266 102.609 19.6445 104.555 18.6133C105.492 18.1211 106.43 17.875 107.367 17.875V20.6172C106.289 20.6172 105.457 21.0625 104.871 21.9531C104.566 22.3984 104.414 22.8672 104.414 23.3594C104.414 24.1094 105 24.7188 106.172 25.1875C107.062 25.5625 108.785 26.0547 111.34 26.6641C112.934 26.9922 114.07 27.7773 114.75 29.0195C115.102 29.6758 115.277 30.4141 115.277 31.2344C115.277 33.4844 114.375 35.1484 112.57 36.2266C111.516 36.8594 110.309 37.1758 108.949 37.1758V34.3984C110.027 34.3984 110.93 34.0234 111.656 33.2734C112.172 32.7344 112.43 32.1016 112.43 31.375C112.43 30.4375 111.504 29.6875 109.652 29.125C109.184 28.9844 108.434 28.7852 107.402 28.5273C106.301 28.2695 105.504 28.0586 105.012 27.8945C103.23 27.1914 102.152 26.125 101.777 24.6953C101.684 24.2734 101.637 23.8281 101.637 23.3594ZM108.914 20.6523V17.875C110.93 17.875 112.559 18.625 113.801 20.125C114.574 21.0859 114.961 22.0938 114.961 23.1484L112.184 23.6055C112.184 22.3164 111.48 21.4141 110.074 20.8984C109.652 20.7344 109.266 20.6523 108.914 20.6523ZM117.352 31.7969V23.0781C117.375 22 117.891 20.9336 118.898 19.8789C120.117 18.6367 121.594 18.0039 123.328 17.9805V20.7578C122.203 20.7578 121.324 21.25 120.691 22.2344C120.434 22.6562 120.305 23.043 120.305 23.3945V25.7852H128.18V23.3945C128.18 22.3398 127.641 21.5664 126.562 21.0742C126.07 20.8398 125.566 20.7227 125.051 20.7227V17.9805C126.668 17.9805 128.109 18.5547 129.375 19.7031C130.43 20.7109 130.969 21.8242 130.992 23.043V28.6328H120.305V31.7969C120.305 32.4531 120.68 33.0625 121.43 33.625C122.039 34.0469 122.684 34.2578 123.363 34.2578V37C121.23 37 119.555 36.1328 118.336 34.3984C117.68 33.4844 117.352 32.6172 117.352 31.7969ZM125.051 37V34.2227C126.457 34.2227 127.512 33.6133 128.215 32.3945C128.355 32.1367 128.461 31.8906 128.531 31.6562L131.027 32.5703C130.605 34.1875 129.645 35.4062 128.145 36.2266C127.184 36.7422 126.152 37 125.051 37Z" fill="white"/>
<path d="M0.312 63L3.624 58.608L0.516 54.48H1.5L4.332 58.272H5.496V54.48H6.324V58.272H7.476L10.32 54.48H11.304L8.184 58.608L11.496 63H10.524L7.5 59.04H6.324V63H5.496V59.04H4.308L1.284 63H0.312ZM14.3802 63V54.48H15.2082V61.848L20.4882 54.48H21.2682V63H20.4402V55.764L15.2202 63H14.3802ZM30.6494 63V55.224H27.1694L27.1214 57.024C27.0814 58.2 26.9974 59.176 26.8694 59.952C26.7414 60.728 26.5614 61.34 26.3294 61.788C26.0974 62.228 25.8134 62.544 25.4774 62.736C25.1414 62.92 24.7414 63.012 24.2774 63.012V62.268C24.5894 62.268 24.8654 62.188 25.1054 62.028C25.3454 61.868 25.5494 61.588 25.7174 61.188C25.8854 60.788 26.0174 60.236 26.1134 59.532C26.2174 58.82 26.2854 57.92 26.3174 56.832L26.3894 54.48H31.4774V63H30.6494ZM35.0962 63V54.48H35.9242V61.848L41.2042 54.48H41.9842V63H41.1562V55.764L35.9362 63H35.0962ZM45.6533 63V54.48H46.4813V61.848L51.7613 54.48H52.5413V63H51.7133V55.764L46.4933 63H45.6533ZM49.1093 53.76C48.7173 53.76 48.3853 53.704 48.1133 53.592C47.8493 53.472 47.6493 53.312 47.5133 53.112C47.3773 52.904 47.3053 52.68 47.2973 52.44H47.9573C47.9653 52.648 48.0493 52.836 48.2093 53.004C48.3773 53.172 48.6773 53.256 49.1093 53.256C49.5253 53.256 49.8173 53.18 49.9853 53.028C50.1533 52.868 50.2413 52.672 50.2493 52.44H50.9093C50.9013 52.68 50.8293 52.904 50.6933 53.112C50.5573 53.312 50.3573 53.472 50.0933 53.592C49.8373 53.704 49.5093 53.76 49.1093 53.76ZM60.6611 63V54.48H61.5011V58.272H62.7851L65.7131 54.48H66.6851L63.4811 58.608L66.8891 63H65.8571L62.8091 59.04H61.5011V63H60.6611ZM72.6698 63.06C72.0698 63.06 71.5258 62.94 71.0378 62.7C70.5498 62.46 70.1298 62.136 69.7778 61.728C69.4258 61.312 69.1538 60.848 68.9618 60.336C68.7698 59.816 68.6738 59.284 68.6738 58.74C68.6738 58.172 68.7738 57.632 68.9738 57.12C69.1738 56.6 69.4538 56.14 69.8138 55.74C70.1818 55.332 70.6098 55.012 71.0978 54.78C71.5858 54.54 72.1138 54.42 72.6818 54.42C73.2818 54.42 73.8258 54.544 74.3138 54.792C74.8018 55.04 75.2178 55.372 75.5618 55.788C75.9138 56.204 76.1858 56.668 76.3778 57.18C76.5698 57.692 76.6658 58.216 76.6658 58.752C76.6658 59.32 76.5658 59.864 76.3658 60.384C76.1658 60.896 75.8858 61.356 75.5258 61.764C75.1658 62.164 74.7418 62.48 74.2538 62.712C73.7658 62.944 73.2378 63.06 72.6698 63.06ZM69.5138 58.74C69.5138 59.204 69.5898 59.652 69.7418 60.084C69.8938 60.508 70.1098 60.888 70.3898 61.224C70.6698 61.552 71.0018 61.816 71.3858 62.016C71.7778 62.208 72.2058 62.304 72.6698 62.304C73.1578 62.304 73.5938 62.204 73.9778 62.004C74.3698 61.796 74.7018 61.524 74.9738 61.188C75.2538 60.844 75.4658 60.46 75.6098 60.036C75.7538 59.612 75.8258 59.18 75.8258 58.74C75.8258 58.276 75.7498 57.832 75.5978 57.408C75.4458 56.984 75.2258 56.604 74.9378 56.268C74.6578 55.932 74.3258 55.668 73.9418 55.476C73.5578 55.284 73.1338 55.188 72.6698 55.188C72.1898 55.188 71.7538 55.288 71.3618 55.488C70.9778 55.688 70.6458 55.96 70.3658 56.304C70.0938 56.64 69.8818 57.02 69.7298 57.444C69.5858 57.868 69.5138 58.3 69.5138 58.74ZM87.2376 63V56.064L84.1536 61.452H83.6256L80.5296 56.064V63H79.6896V54.48H80.5536L83.8776 60.312L87.2256 54.48H88.0776V63H87.2376ZM91.653 63V54.48H98.085V63H97.245V55.224H92.493V63H91.653ZM107.419 63V55.224H103.939L103.891 57.024C103.851 58.2 103.767 59.176 103.639 59.952C103.511 60.728 103.331 61.34 103.099 61.788C102.867 62.228 102.583 62.544 102.247 62.736C101.911 62.92 101.511 63.012 101.047 63.012V62.268C101.359 62.268 101.635 62.188 101.875 62.028C102.115 61.868 102.319 61.588 102.487 61.188C102.655 60.788 102.787 60.236 102.883 59.532C102.987 58.82 103.055 57.92 103.087 56.832L103.159 54.48H108.247V63H107.419ZM117.542 62.256V63H111.818V54.48H117.434V55.224H112.658V58.296H116.822V59.004H112.658V62.256H117.542ZM120.571 63V54.48H121.411V58.272H122.695L125.623 54.48H126.595L123.391 58.608L126.799 63H125.767L122.719 59.04H121.411V63H120.571ZM128.583 58.68C128.583 58.16 128.671 57.652 128.847 57.156C129.031 56.652 129.295 56.196 129.639 55.788C129.983 55.372 130.407 55.044 130.911 54.804C131.415 54.556 131.987 54.432 132.627 54.432C133.387 54.432 134.035 54.608 134.571 54.96C135.115 55.304 135.515 55.748 135.771 56.292L135.111 56.7C134.927 56.324 134.695 56.028 134.415 55.812C134.135 55.588 133.835 55.428 133.515 55.332C133.203 55.236 132.891 55.188 132.579 55.188C132.067 55.188 131.615 55.292 131.223 55.5C130.831 55.7 130.499 55.972 130.227 56.316C129.963 56.652 129.763 57.032 129.627 57.456C129.491 57.872 129.423 58.296 129.423 58.728C129.423 59.2 129.503 59.652 129.663 60.084C129.823 60.516 130.047 60.9 130.335 61.236C130.623 61.564 130.959 61.828 131.343 62.028C131.735 62.22 132.159 62.316 132.615 62.316C132.935 62.316 133.263 62.26 133.599 62.148C133.935 62.036 134.247 61.864 134.535 61.632C134.831 61.4 135.067 61.1 135.243 60.732L135.939 61.092C135.763 61.516 135.491 61.876 135.123 62.172C134.755 62.468 134.343 62.692 133.887 62.844C133.439 62.996 132.999 63.072 132.567 63.072C131.983 63.072 131.447 62.948 130.959 62.7C130.471 62.444 130.047 62.108 129.687 61.692C129.335 61.268 129.063 60.796 128.871 60.276C128.679 59.748 128.583 59.216 128.583 58.68Z" fill="white"/>
</svg>
